<svg width="144" height="144" viewBox="0 0 144 144" fill="none" xmlns="http://www.w3.org/2000/svg">
<g id="icon">
<path id="Vector" d="M95.9996 37.6996C100.656 37.6996 104.566 33.6319 104.566 29.133V20.5664C104.566 16.0639 100.656 11.9999 95.9996 11.9999C91.3435 11.9999 87.4331 16.0639 87.4331 20.5664V29.133C87.4331 33.6319 91.3435 37.6996 95.9996 37.6996ZM108.174 24.0011L108 28.4893C108 36.0012 104.566 42.0012 95.9996 42.0012C87.4331 42.0012 83.9996 36.0012 83.9996 28.4893V24.0012H59.9999V28.4893C60 35.8302 56.5475 41.9842 47.9809 41.9842C39.4144 41.9842 36 36.0012 36 28.4893L36.0269 24.0011L18 23.9999C18 23.9999 18 27.4034 18 28.4548V131.999C18 131.999 21.1242 132.001 22.1965 132.001L121.801 132C122.875 132 126 131.999 126 131.999V28.4543C126 27.4028 126 23.9999 126 23.9999L108.174 24.0011ZM120 126.001H24V48.0012H120V126.001ZM47.9808 37.701C52.6349 37.701 56.5474 33.6334 56.5474 29.1344V20.5679C56.5474 16.0654 52.6349 12.0013 47.9808 12.0013C43.3226 12.0013 39.4142 16.0654 39.4142 20.5679V29.1344C39.4144 33.6334 43.3226 37.701 47.9808 37.701ZM39.8723 71.4791C40.0739 71.6628 40.3464 71.7728 40.6432 71.7641C40.9412 71.7548 41.2063 71.6288 41.3947 71.4331L43.6057 69.1334L43.5913 69.1194L53.9879 58.3837C54.1771 58.1872 54.2885 57.9203 54.2794 57.6305C54.2699 57.3395 54.1421 57.081 53.9405 56.8964L52.0976 55.119C51.8969 54.9356 51.5069 54.8252 51.2088 54.8345C50.9124 54.8432 50.7648 54.9697 50.5759 55.1651L44.8627 61.6247C43.6511 62.933 40.8534 65.8514 40.3175 65.8514C39.7922 65.8514 39.0852 64.9822 38.8836 64.7972L36.546 62.6501C36.344 62.4656 36.0724 62.3563 35.7746 62.3656C35.4778 62.3743 35.2115 62.5008 35.0239 62.6965L33.5484 64.2298C33.3592 64.4255 33.2483 64.692 33.2569 64.9822C33.2672 65.2727 33.3962 65.5316 33.5963 65.7162L39.8723 71.4791ZM69.9521 71.4791C70.1537 71.6628 70.4266 71.7728 70.723 71.7641C71.021 71.7548 71.2861 71.6288 71.4745 71.4331L73.6859 69.1334L73.6715 69.1194L84.0677 58.3837C84.2569 58.1872 84.3683 57.9203 84.3595 57.6305C84.35 57.3395 84.2218 57.081 84.0206 56.8964L82.1778 55.119C81.9766 54.9356 81.5866 54.8252 81.289 54.8345C80.9926 54.8432 80.845 54.9697 80.6557 55.1651L74.9429 61.6247C73.7308 62.933 70.9336 65.8514 70.3968 65.8514C69.872 65.8514 69.1654 64.9822 68.9638 64.7972L66.6258 62.6501C66.4242 62.4656 66.1522 62.3563 65.8544 62.3656C65.558 62.3743 65.2916 62.5008 65.1037 62.6965L63.6287 64.2298C63.4394 64.4255 63.3286 64.692 63.3368 64.9822C63.3475 65.2727 63.4762 65.5316 63.6766 65.7162L69.9521 71.4791ZM98.9522 71.4791C99.153 71.6628 99.4264 71.7728 99.7232 71.7641C100.021 71.7548 100.286 71.6288 100.474 71.4331L102.686 69.1334L102.671 69.1194L113.067 58.3837C113.257 58.1872 113.368 57.9203 113.359 57.6305C113.35 57.3395 113.222 57.081 113.021 56.8964L111.178 55.119C110.976 54.9356 110.586 54.8252 110.288 54.8345C109.992 54.8432 109.844 54.9697 109.656 55.1651L103.943 61.6247C102.73 62.933 99.933 65.8514 99.3971 65.8514C98.8718 65.8514 98.1652 64.9822 97.9637 64.7972L95.6252 62.6501C95.424 62.4656 95.152 62.3563 94.8539 62.3656C94.5583 62.3743 94.2916 62.5008 94.1032 62.6965L92.6281 64.2298C92.4394 64.4255 92.328 64.692 92.3371 64.9822C92.347 65.2727 92.4764 65.5316 92.6764 65.7162L98.9522 71.4791ZM39.5699 92.8955C39.7715 93.0792 40.044 93.1893 40.3408 93.1805C40.6388 93.1712 40.9039 93.0452 41.0923 92.8495L43.3033 90.5499L43.2889 90.5358L53.6855 79.8002C53.8747 79.6037 53.9861 79.3368 53.977 79.047C53.9675 78.756 53.8397 78.4975 53.6381 78.313L51.7952 76.5355C51.5945 76.3523 51.2045 76.2418 50.9064 76.251C50.61 76.2598 50.4624 76.3862 50.2735 76.5816L44.5603 83.0412C43.3487 84.3496 40.551 87.268 40.0151 87.268C39.4898 87.268 38.7828 86.3987 38.5812 86.2138L36.2436 84.0666C36.0416 83.882 35.7698 83.7728 35.4722 83.7821C35.1754 83.7908 34.9091 83.9173 34.7215 84.113L33.246 85.6463C33.0568 85.842 32.9459 86.1085 32.9545 86.3987C32.9648 86.6892 33.0938 86.9482 33.2938 87.1327L39.5699 92.8955ZM39.5699 114.413C39.7715 114.597 40.044 114.707 40.3408 114.698C40.6388 114.689 40.9039 114.563 41.0923 114.367L43.3033 112.068L43.2889 112.053L53.6855 101.318C53.8747 101.121 53.9861 100.854 53.977 100.565C53.9675 100.274 53.8397 100.015 53.6381 99.8305L51.7952 98.0531C51.5945 97.8697 51.2045 97.7593 50.9064 97.7686C50.61 97.7773 50.4624 97.9038 50.2735 98.0992L44.5603 104.559C43.3487 105.867 40.551 108.786 40.0151 108.786C39.4898 108.786 38.7828 107.916 38.5812 107.731L36.2436 105.584C36.0416 105.4 35.7698 105.29 35.4722 105.3C35.1754 105.308 34.9091 105.435 34.7215 105.631L33.246 107.164C33.0568 107.36 32.9459 107.626 32.9545 107.916C32.9648 108.207 33.0938 108.466 33.2938 108.65L39.5699 114.413ZM69.6498 92.8955C69.8514 93.0792 70.1243 93.1893 70.4207 93.1805C70.7188 93.1712 70.9838 93.0452 71.1722 92.8495L73.3836 90.5499L73.3692 90.5358L83.7654 79.8002C83.9546 79.6037 84.066 79.3368 84.0572 79.047C84.0478 78.756 83.9196 78.4975 83.7184 78.313L81.8755 76.5355C81.6743 76.3523 81.2843 76.2418 80.9867 76.251C80.6903 76.2598 80.5427 76.3862 80.3534 76.5816L74.6406 83.0412C73.4285 84.3496 70.6313 87.268 70.0945 87.268C69.5698 87.268 68.8631 86.3987 68.6615 86.2138L66.3235 84.0666C66.1219 83.882 65.8499 83.7728 65.5522 83.7821C65.2558 83.7908 64.9894 83.9173 64.8014 84.113L63.3264 85.6463C63.1372 85.842 63.0263 86.1085 63.0346 86.3987C63.0452 86.6892 63.1739 86.9482 63.3743 87.1327L69.6498 92.8955ZM98.6498 92.8955C98.8506 93.0792 99.124 93.1893 99.4207 93.1805C99.7184 93.1712 99.9835 93.0452 100.172 92.8495L102.383 90.5499L102.368 90.5358L112.765 79.8002C112.954 79.6037 113.066 79.3368 113.057 79.047C113.047 78.756 112.919 78.4975 112.718 78.313L110.876 76.5355C110.674 76.3523 110.284 76.2418 109.986 76.251C109.689 76.2598 109.542 76.3862 109.353 76.5816L103.64 83.0412C102.428 84.3496 99.6305 87.268 99.0946 87.268C98.5693 87.268 97.8628 86.3987 97.6612 86.2138L95.3227 84.0666C95.1215 83.882 94.8494 83.7728 94.5514 83.7821C94.2558 83.7908 93.989 83.9173 93.8006 84.113L92.3256 85.6463C92.1368 85.842 92.0255 86.1085 92.0346 86.3987C92.0444 86.6892 92.1739 86.9482 92.3738 87.1327L98.6498 92.8955ZM100.247 102.008C97.882 102.008 95.9996 102 95.9996 102V114C95.9996 114 97.882 113.994 100.247 113.994H103.667C106.032 113.994 108 114 108 114V102C108 102 106.032 102.008 103.667 102.008H100.247ZM65.9998 102C65.9998 102 65.9998 103.926 65.9998 106.291V113.999C65.9998 113.999 67.9176 113.994 70.2829 113.994H73.7022C76.0679 113.994 77.9996 113.999 77.9996 113.999L77.9854 106.291C77.9854 103.926 77.9996 102 77.9996 102H65.9998Z" fill="#CBE7FE"/>
</g>
</svg>
