<svg width="144" height="144" viewBox="0 0 144 144" fill="none" xmlns="http://www.w3.org/2000/svg">
<g id="icon">
<path id="Union" fill-rule="evenodd" clip-rule="evenodd" d="M13.5884 41.356C12.416 38.5255 11.8125 35.4918 11.8125 32.4281C11.8125 29.3644 12.416 26.3307 13.5884 23.5002C14.7608 20.6697 16.4793 18.0979 18.6457 15.9315C20.812 13.7651 23.3839 12.0467 26.2143 10.8743C29.0448 9.70183 32.0785 9.09839 35.1422 9.09839C38.2059 9.09839 41.2396 9.70183 44.0701 10.8743C46.9006 12.0467 49.4725 13.7651 51.6388 15.9315C53.8052 18.0979 55.5236 20.6697 56.6961 23.5002C57.8685 26.3307 58.4719 29.3644 58.4719 32.4281C58.4719 35.4918 57.8685 38.5255 56.6961 41.356C55.5236 44.1865 53.8052 46.7583 51.6388 48.9247C49.4725 51.091 46.9006 52.8095 44.0701 53.9819C41.2396 55.1543 38.2059 55.7578 35.1422 55.7578C32.0785 55.7578 29.0448 55.1543 26.2143 53.9819C23.3839 52.8095 20.812 51.091 18.6457 48.9247C16.4793 46.7583 14.7608 44.1865 13.5884 41.356ZM8.90161 89.9015V134.353H62.6485V89.9015C62.6485 86.6565 62.0655 83.5409 60.9991 80.6544L91.0829 50.0625C93.0938 48.0234 93.0657 44.7468 91.0266 42.7359C88.9876 40.725 85.711 40.7531 83.7001 42.7922L55.396 71.5864C50.4824 66.3278 43.4952 63.0281 35.775 63.0281C20.9954 63.0281 8.90161 75.1218 8.90161 89.9015ZM74.2079 99.5343H112.177C124.552 99.5343 134.606 89.0578 134.606 76.1906V39.4171C134.606 26.5359 124.552 16.0593 112.191 16.0593H65.3625C62.5079 16.0593 60.1875 18.3796 60.1875 21.2343C60.1875 24.089 62.5079 26.4093 65.3625 26.4093H112.191C115.341 26.4093 118.322 27.7312 120.6 30.1359C122.948 32.6109 124.242 35.9015 124.242 39.4031V76.1906C124.242 79.6921 122.948 82.9828 120.6 85.4578C118.336 87.8624 115.341 89.1843 112.191 89.1843H74.2079C71.3532 89.1843 69.0329 91.5046 69.0329 94.3593C69.0329 97.214 71.3532 99.5343 74.2079 99.5343Z" fill="#FEEECC"/>
</g>
</svg>
