<svg width="530" height="525" viewBox="0 0 530 525" fill="none" xmlns="http://www.w3.org/2000/svg">
<!-- <path d="M306.322 404.295C306.847 404.361 307.372 404.295 307.962 404.23C308.356 404.165 308.619 404.035 308.881 403.774C309.275 403.188 309.472 402.537 309.406 401.82V389.313C307.503 390.16 305.6 391.007 303.763 391.919L302.057 384.884C304.551 384.037 306.978 383.125 309.406 382.148V373.484H303.501V366.775H309.406V357.069H316.033V366.775H320.363V373.484H316.033V379.282C317.083 378.826 318.198 378.37 319.248 377.783L320.035 381.171L320.888 384.493L315.967 386.512V403.839C315.967 405.012 315.836 406.184 315.508 407.422C315.311 408.074 314.983 408.66 314.589 409.116C313.933 409.702 313.146 410.158 312.162 410.353C310.849 410.614 309.537 410.744 308.225 410.744H304.091L302.648 404.295H306.322ZM326.99 396.413C329.287 394.59 331.255 392.57 333.027 390.29H321.413V383.841H335.455V377.979H342.147V383.841H356.976V390.29H344.313C346.084 392.57 348.118 394.655 350.349 396.413C353.302 398.758 356.451 400.778 359.797 402.406L355.729 408.725C350.546 405.598 346.019 401.69 342.213 397.065V411.005H335.52V396.804C333.814 398.954 331.911 400.973 329.877 402.797C327.253 405.077 324.432 407.162 321.479 409.051L317.083 402.862C320.56 401.038 323.907 398.824 326.99 396.413ZM333.421 367.817L338.014 372.246C334.077 376.155 329.878 379.738 325.35 382.864L321.61 377.653C325.875 374.917 329.877 371.595 333.421 367.817ZM356.91 359.088V371.204H350.415V365.602H328.303V371.139H321.807V359.088H356.91ZM343.656 367.687C348.053 370.748 352.449 373.875 356.714 377.067L352.842 382.148C348.643 378.76 344.313 375.569 339.916 372.572L343.656 367.687Z" fill="#002C6B"/>
<path d="M364.915 401.625C365.768 400.257 366.49 398.824 367.081 397.26C367.868 394.98 368.327 392.7 368.59 390.29C368.852 386.968 368.983 383.646 368.983 380.324V358.176H408.221V402.081C408.221 403.579 408.024 405.077 407.696 406.51C407.433 407.552 406.843 408.464 405.99 409.181C405.268 409.702 404.481 410.028 403.628 410.288C401.987 410.614 400.412 410.809 398.772 410.809H390.767L389.324 403.839H396.804C397.525 403.905 398.247 403.839 398.969 403.709C399.363 403.644 399.691 403.579 399.953 403.383C400.281 403.123 400.478 402.797 400.609 402.406C400.741 401.82 400.806 401.234 400.806 400.713V393.808H375.545C375.02 396.935 374.167 399.931 372.855 402.797C371.149 406.184 369.115 409.246 366.687 412.112L359.994 407.748C361.766 405.794 363.406 403.774 364.915 401.625ZM376.135 387.098H400.806V379.672H376.267V381.171C376.267 383.125 376.201 385.144 376.135 387.098ZM376.267 372.963H400.806V365.081H376.267V372.963Z" fill="#002C6B"/>
<path d="M424.427 362.345V356.352H430.726V362.345H436.566V365.993C437.944 363.713 439.322 361.303 440.503 358.893L446.145 361.759C444.242 365.602 442.143 369.185 439.781 372.637H442.733V375.959C444.308 372.963 445.686 369.901 446.867 366.644C448.179 363.257 449.229 359.805 450.017 356.222L457.103 356.939C456.381 359.674 455.659 362.28 454.806 364.951H470.291V371.53H466.682C466.092 376.09 465.108 380.519 463.796 384.884C462.68 388.206 461.237 391.333 459.399 394.329C460.909 396.153 462.549 397.847 464.32 399.41C466.617 401.429 469.045 403.318 471.604 405.077L467.076 411.787C462.483 408.53 458.415 404.751 454.806 400.452C450.87 404.751 446.473 408.595 441.684 411.917L436.697 405.859C439.65 404.035 442.471 402.081 445.161 399.866C447.13 398.237 448.967 396.479 450.673 394.524C448.639 390.942 447.13 387.164 446.145 383.125L444.833 384.819L440.306 379.803L440.962 378.761H434.925L432.498 381.431H441.684V387.294L433.81 392.961V393.091L443.914 391.854L443.98 394.72L444.177 397.586L433.81 398.824V404.686C433.81 405.794 433.679 406.901 433.416 407.943C433.154 408.725 432.695 409.376 432.038 409.898C431.513 410.288 430.923 410.614 430.267 410.744C429.086 411.005 427.839 411.135 426.592 411.135H420.162L418.85 404.686H423.837C424.427 404.751 425.018 404.686 425.543 404.621C425.805 404.556 426.067 404.426 426.33 404.295C426.592 404.035 426.789 403.774 426.855 403.449C426.92 402.927 426.986 402.472 426.986 401.885V399.67C423.312 400.126 419.703 400.582 416.094 401.038L415.438 395.176L426.986 393.808V391.137L431.907 387.229H426.264C423.312 389.769 420.293 392.114 417.144 394.264L413.338 388.792C414.519 388.076 415.701 387.294 416.882 386.447V381.431H423.115C424.033 380.584 425.018 379.738 425.936 378.761H414.913V372.572H424.23V368.208H417.21V362.28H424.427V362.345ZM434.991 368.273H430.726V372.637H431.776C432.891 371.269 433.941 369.771 434.991 368.273ZM451.066 374.657C451.788 379.347 453.166 383.776 455.2 388.01C456.25 385.796 457.169 383.516 457.89 381.106C458.743 377.979 459.399 374.787 459.859 371.595H452.444L451.066 374.657Z" fill="#002C6B"/>
<path d="M478.952 370.488C479.28 370.357 479.608 370.227 480.002 370.032C482.167 369.12 484.267 368.012 486.301 366.71H472.85V360.456H496.799C496.209 359.088 495.684 357.655 495.159 356.222L502.377 354.724L504.607 360.456H527.835V366.71H515.171C518.78 369.25 522.323 371.791 525.932 374.331L521.405 379.803C521.339 379.803 521.273 379.803 521.273 379.738V403.253C521.273 404.556 521.077 405.794 520.748 407.031C520.42 407.943 519.83 408.725 519.108 409.376C518.386 409.832 517.665 410.158 516.877 410.353C515.368 410.614 513.859 410.809 512.35 410.809H504.279L503.164 404.817H511.759C512.284 404.882 512.875 404.817 513.4 404.751C513.662 404.686 513.859 404.621 514.056 404.491C514.253 404.23 514.384 403.97 514.384 403.709C514.449 403.188 514.449 402.732 514.449 402.146V401.95H486.235V410.94H479.215V379.672H521.273L517.402 376.676C506.445 376.871 495.487 377.132 484.529 377.458C482.102 377.588 479.674 377.718 477.312 377.979L476.065 371.465C477.05 371.269 478.034 370.944 478.952 370.488ZM486.301 388.01H514.515V385.144H486.301V388.01ZM486.301 396.413H514.515V393.417H486.301V396.413ZM507.363 366.71H496.931C494.437 368.403 491.878 369.967 489.319 371.53L509.857 371.204C508.479 370.292 507.166 369.315 505.854 368.338L507.363 366.71Z" fill="#002C6B"/> -->
<path d="M208.426 466.96H199.503L186.773 432.631V466.96H178.244V421.036H192.088L204.292 454.974L216.562 421.036H230.079V466.96H221.09V432.631L208.426 466.96Z" fill="#002C6B"/>
<path d="M257.899 420.19C272.597 420.19 282.176 430.417 282.176 443.966C282.176 457.45 272.597 467.872 258.096 467.872C243.398 467.872 234.016 457.71 234.016 444.096C234.016 430.547 243.858 420.19 257.899 420.19ZM258.096 459.209C267.085 459.209 272.4 452.694 272.4 444.031C272.4 435.432 266.823 428.788 258.03 428.788C249.041 428.788 243.792 435.432 243.792 444.031C243.792 452.694 249.501 459.209 258.096 459.209Z" fill="#002C6B"/>
<path d="M307.897 420.19C322.594 420.19 332.174 430.417 332.174 443.966C332.174 457.45 322.594 467.872 308.094 467.872C293.396 467.872 284.013 457.71 284.013 444.096C284.013 430.547 293.855 420.19 307.897 420.19ZM308.094 459.209C317.083 459.209 322.398 452.694 322.398 444.031C322.398 435.432 316.82 428.788 308.028 428.788C299.039 428.788 293.79 435.432 293.79 444.031C293.79 452.694 299.433 459.209 308.094 459.209Z" fill="#002C6B"/>
<path d="M345.1 436.735V467.025H336.045V421.102H345.69L365.571 451.913V421.102H374.626V467.025H365.375L345.1 436.735Z" fill="#002C6B"/>
<path d="M393.261 437.908C395.492 438.82 397.657 439.601 400.216 440.774C405.793 443.249 409.139 447.092 409.139 453.606C409.139 462.4 402.84 467.872 393.917 467.872C381.647 467.872 378.76 459.99 379.088 452.89H387.946C387.88 456.603 389.389 459.925 393.982 459.925C397.263 459.925 399.691 458.036 399.691 454.584C399.691 451.522 397.722 449.959 394.77 448.656C392.145 447.483 389.389 446.636 386.765 445.138C382.303 442.793 379.875 438.624 379.875 433.152C379.875 425.661 385.387 420.19 394.048 420.19C404.481 420.19 408.155 426.443 407.827 433.934H399.297C399.297 430.547 397.46 428.072 394.114 428.072C390.899 428.072 389.193 430.091 389.193 432.631C388.93 435.042 390.242 436.67 393.261 437.908Z" fill="#002C6B"/>
<path d="M450.41 466.96H441.093V447.744H422.656V466.96H413.338V421.036H422.656V439.015H441.093V421.036H450.41V466.96Z" fill="#002C6B"/>
<path d="M478.165 420.19C492.863 420.19 502.442 430.417 502.442 443.966C502.442 457.45 492.863 467.872 478.362 467.872C463.664 467.872 454.282 457.71 454.282 444.096C454.282 430.547 464.124 420.19 478.165 420.19ZM478.362 459.209C487.351 459.209 492.666 452.694 492.666 444.031C492.666 435.432 487.089 428.788 478.296 428.788C469.307 428.788 464.058 435.432 464.058 444.031C464.058 452.694 469.767 459.209 478.362 459.209Z" fill="#002C6B"/>
<path d="M519.83 429.7V467.025H510.513V429.7H502.114V421.102H528.228V429.7H519.83Z" fill="#002C6B"/>
<path d="M279.552 511.516H263.673L259.146 524.153H249.96L266.691 478.229H276.468L293.987 524.153H284.145L279.552 511.516ZM266.626 503.699H276.73L271.678 489.889L266.626 503.699Z" fill="#002C6B"/>
<path d="M331.255 518.942C327.712 522.394 322.66 525 315.967 525C301.073 525 291.69 514.773 291.69 501.224C291.69 487.74 301.335 477.317 315.77 477.317C322.397 477.317 327.45 479.467 331.124 482.724L325.613 489.629C323.447 487.74 320.035 485.916 315.77 485.916C306.781 485.916 301.401 492.56 301.401 501.159C301.401 509.888 307.241 516.336 315.902 516.336C320.56 516.336 323.841 514.122 325.809 512.493L331.255 518.942Z" fill="#002C6B"/>
<path d="M360.782 511.516H344.903L340.376 524.153H331.19L347.921 478.229H357.698L375.217 524.153H365.375L360.782 511.516ZM347.79 503.699H357.895L352.842 489.889L347.79 503.699Z" fill="#002C6B"/>
<path d="M386.24 478.229C401.397 478.229 410.517 486.828 410.517 501.159C410.517 515.294 401.331 524.218 386.24 524.218H376.857V478.294H386.24V478.229ZM386.174 515.946H386.699C395.36 516.011 400.806 510.799 400.806 501.094C400.806 491.518 395.491 486.307 386.699 486.372H386.174V515.946Z" fill="#002C6B"/>
<path d="M414.585 524.153V478.229H435.778V486.828H423.902V496.403H435.45V504.872H423.902V515.49H435.975V524.088H414.585V524.153Z" fill="#002C6B"/>
<path d="M471.341 524.153H462.418L449.689 489.824V524.153H441.159V478.229H455.003L467.207 512.167L479.477 478.229H492.994V524.153H484.005V489.824L471.341 524.153Z" fill="#002C6B"/>
<path d="M494.7 478.229H505.067L512.547 492.169L520.158 478.229H530L516.877 501.094V524.218H507.56V501.224L494.7 478.229Z" fill="#002C6B"/>
<path d="M113.548 288.151H112.039C99.1788 288.085 87.5652 287.76 75.8203 284.828C61.8445 281.311 49.9684 275.123 41.373 266.72C26.0193 251.802 18.7362 228.873 19.7204 198.648L19.786 196.238L21.8857 197.41C27.3316 200.407 34.4179 201.384 40.52 201.905C56.3985 203.273 72.0147 209.005 84.4157 218.125C97.5385 227.831 106.528 240.663 110.333 255.255C113.089 265.677 113.351 276.491 113.483 286.652L113.548 288.151ZM22.673 201.058C22.0825 229.264 29.1031 250.63 43.4726 264.635C51.6743 272.647 63.1568 278.64 76.542 281.962C87.4995 284.698 98.4571 285.089 110.53 285.154C110.464 275.644 110.071 265.547 107.512 255.971C103.837 242.031 95.242 229.72 82.6442 220.47C70.7024 211.676 55.6768 206.074 40.3232 204.771C34.6804 204.38 28.1846 203.534 22.673 201.058Z" fill="#002C6B"/>
<path d="M243.858 338.83C239.002 338.83 234.212 338.178 229.882 336.941C229.751 336.875 229.619 336.875 229.423 336.81C229.357 336.81 229.226 336.745 229.16 336.745L225.617 335.703L228.898 334.074C251.469 322.87 271.219 306.65 285.982 287.174L288.934 283.265L288.672 288.085C287.819 301.83 285.522 311.731 281.126 320.069C274.499 332.772 258.818 338.83 243.858 338.83ZM233.753 334.856C250.025 338.243 270.891 333.358 278.633 318.636C282.307 311.666 284.473 303.524 285.457 292.71C271.547 309.842 253.831 324.303 233.753 334.856Z" fill="#002C6B"/>
<path d="M25.232 128.623L25.4945 123.672C25.8882 116.767 26.6755 107.713 29.5625 98.7232C37.3049 74.6214 58.8263 64.0035 80.2164 55.1445C81.3975 54.6885 82.5786 54.1674 83.7596 53.7114C96.8168 48.5002 109.612 44.3963 121.816 41.465L130.542 39.3806L122.931 44.1358C119.65 46.2203 116.239 48.435 112.892 50.7149L112.761 50.8452C87.1716 68.3679 63.0256 88.2356 40.9793 109.862C36.3208 114.422 32.0558 119.373 28.1846 124.649L25.232 128.623ZM113.745 46.6111C104.362 49.2167 94.7172 52.5389 84.8751 56.4473C83.694 56.9032 82.513 57.4244 81.3319 57.8803C60.5979 66.4137 39.7327 76.7058 32.3839 99.6352C30.2187 106.345 29.3001 113.184 28.7752 118.982C31.9246 115.073 35.2709 111.295 38.8796 107.778C61.0572 86.0209 85.3343 66.088 111.055 48.435L111.186 48.3048C112.105 47.7185 112.958 47.1322 113.745 46.6111Z" fill="#002C6B"/>
<path d="M319.707 207.572L320.495 203.794C322.988 191.287 324.825 178.324 325.809 165.362C327.581 143.344 325.547 120.48 320.035 101.003L318.657 96.1176L322.463 99.5049C327.515 104.065 332.24 108.755 336.505 113.51C348.184 126.538 354.876 139.631 356.32 152.399C357.37 161.453 355.008 170.508 349.299 179.367C346.872 183.145 343.722 186.923 340.048 190.636C334.667 196.042 328.828 200.602 322.791 205.162L319.707 207.572ZM324.169 105.107C328.762 123.737 330.402 145.038 328.762 165.557C327.843 177.347 326.269 189.073 324.103 200.537C328.959 196.824 333.683 192.981 338.014 188.617C341.557 185.034 344.509 181.386 346.871 177.803C352.186 169.596 354.417 161.127 353.433 152.789C352.055 140.608 345.625 128.036 334.339 115.464C331.124 111.882 327.778 108.494 324.169 105.107Z" fill="#002C6B"/>
<path d="M324.235 105.042L320.429 101.655C304.551 87.454 285.391 75.0774 260.13 62.7007C230.604 48.2396 201.799 40.2925 174.438 38.9897C169.648 38.7943 164.924 38.7292 160.265 38.9246C148.192 39.3806 135.463 41.2045 122.472 44.3312L113.745 46.4157L121.356 41.6605C150.03 23.7469 175.816 15.2787 202.455 15.0833C234.081 14.8879 264.46 25.1149 288.081 43.8752C304.288 56.773 315.967 75.7288 322.857 100.156L324.235 105.042ZM166.564 35.863C169.255 35.863 171.945 35.9281 174.635 36.0584C202.39 37.3612 231.588 45.4386 261.442 60.0951C284.932 71.6249 303.238 83.1547 318.526 96.1827C311.702 74.6865 300.811 57.8804 286.179 46.2203C263.148 27.8508 233.359 17.8192 202.455 18.0798C178.703 18.2752 155.673 25.1149 130.477 39.6411C140.647 37.6218 150.62 36.4493 160.134 36.0584C162.3 35.863 164.465 35.863 166.564 35.863Z" fill="#002C6B"/>
<path d="M22.6731 201.189L20.5735 200.016C18.5394 198.909 16.7678 197.541 15.2587 196.042C12.1092 192.851 10.0096 188.486 8.89415 183.014C5.08854 164.319 11.0594 142.953 25.8226 122.825L28.7752 118.786L28.5127 123.737C28.3159 127.711 28.1846 131.749 28.0534 135.658C27.9222 141.325 27.7254 147.122 27.2661 152.855C26.7411 158.782 26.0194 164.84 25.3632 170.638C24.5103 177.608 23.7229 184.773 23.1323 191.808C23.0011 193.828 22.8699 196.108 22.8043 198.648L22.6731 201.189ZM25.2976 128.753C13.1591 146.927 8.36926 165.817 11.7812 182.493C12.7654 187.379 14.6682 191.222 17.3584 194.023C18.0801 194.805 18.9331 195.521 19.8517 196.173C19.9173 194.609 19.9829 193.111 20.1141 191.743C20.639 184.643 21.492 177.412 22.345 170.442C23.0012 164.645 23.7229 158.652 24.2478 152.724C24.7727 147.122 24.9039 141.325 25.0352 135.723C25.1008 133.378 25.1664 131.098 25.2976 128.753Z" fill="#002C6B"/>
<path d="M153.048 354.854C134.282 354.854 121.553 347.884 116.239 334.661C110.727 320.916 110.661 305.869 110.596 291.277C110.596 289.714 110.596 288.216 110.596 286.652V285.154H114.467C128.574 285.219 143.14 285.284 157.116 289.714C167.877 293.101 183.427 298.638 194.385 308.214C196.944 310.429 199.371 312.708 201.734 314.923C210.198 322.87 218.268 330.296 230.013 333.879L233.556 334.921L230.276 336.55C206.655 348.275 180.999 354.398 154.032 354.789C153.704 354.854 153.376 354.854 153.048 354.854ZM113.548 288.151C113.548 289.193 113.548 290.235 113.548 291.277C113.614 305.608 113.614 320.395 118.929 333.553C125.162 349.057 141.434 352.053 154.032 351.923C179.294 351.597 203.439 346.06 225.748 335.573C215.184 331.534 207.639 324.499 199.7 317.138C197.337 314.923 194.91 312.708 192.416 310.494C181.852 301.309 166.696 295.902 156.197 292.58C142.615 288.346 128.312 288.281 114.401 288.151H113.548Z" fill="#002C6B"/>
<path d="M285.522 292.71L285.785 287.89C286.113 282.614 286.179 277.207 286.244 271.996C286.31 265.547 286.441 259.424 286.9 253.496C287.688 244.311 289.722 231.023 298.186 221.968C304.485 215.259 311.834 209.722 318.986 204.315L324.038 200.472L323.25 204.25C319.117 224.704 313.146 243.53 305.469 260.271C300.876 270.237 295.102 279.813 288.344 288.802L285.522 292.71ZM289.853 253.757C289.328 259.619 289.262 265.677 289.197 272.061C289.131 275.709 289.066 279.422 288.934 283.135C294.38 275.513 299.039 267.436 302.845 259.098C309.931 243.66 315.574 226.333 319.576 207.572C312.949 212.588 306.125 217.799 300.351 223.988C294.38 230.371 291.034 239.817 289.853 253.757Z" fill="#002C6B"/>
<path d="M229.751 336.875L229.16 336.68C216.693 332.902 208.426 325.215 199.699 317.073C197.337 314.858 194.91 312.643 192.416 310.428C181.852 301.244 166.696 295.837 156.197 292.515C142.615 288.281 128.311 288.216 114.401 288.085H110.596V286.652C110.53 276.686 110.202 266.068 107.577 256.037C103.903 242.097 95.3076 229.785 82.7097 220.535C70.768 211.741 55.7424 206.139 40.3887 204.836C33.9586 204.315 26.5442 203.273 20.5734 200.016L19.7859 199.56V198.648C19.8516 196.043 19.9828 193.763 20.1796 191.678C20.7045 184.578 21.5575 177.347 22.4105 170.377C23.0666 164.58 23.7884 158.587 24.3133 152.659C24.8382 147.057 24.9694 141.26 25.1007 135.658C25.2319 131.684 25.2976 127.645 25.56 123.607V123.151L25.8225 122.825C29.7593 117.418 34.1555 112.337 38.9453 107.713C61.1228 85.9557 85.3999 66.0229 111.121 48.3699L111.252 48.2396C114.664 45.8946 118.076 43.6798 121.356 41.5953L121.553 41.4651L121.816 41.3999C135.07 38.208 147.996 36.3841 160.2 35.9281C164.924 35.7327 169.779 35.7979 174.635 35.9933C202.39 37.2961 231.588 45.3735 261.442 60.03C286.966 72.5369 306.322 85.0438 322.398 99.4397L322.726 99.7003L322.857 100.091C328.434 119.829 330.468 143.084 328.696 165.427C327.647 178.52 325.809 191.548 323.316 204.185L323.185 204.706L320.823 206.53C313.802 211.806 306.519 217.343 300.417 223.792C294.446 230.176 291.1 239.621 289.919 253.561C289.394 259.424 289.328 265.482 289.262 271.866C289.197 277.142 289.131 282.549 288.803 287.89V288.346L288.541 288.672C273.449 308.539 253.372 325.02 230.407 336.485L229.751 336.875ZM113.548 285.219H114.467C128.574 285.284 143.14 285.35 157.116 289.779C167.877 293.166 183.427 298.703 194.385 308.279C196.944 310.494 199.371 312.774 201.733 314.988C210.066 322.805 218.006 330.166 229.488 333.749C251.731 322.61 271.153 306.65 285.785 287.434C286.113 282.288 286.179 277.077 286.244 271.996C286.31 265.547 286.441 259.424 286.9 253.496C287.688 244.311 289.722 231.023 298.186 221.968C304.485 215.259 311.834 209.722 318.986 204.315L320.495 203.208C322.922 190.896 324.694 178.129 325.744 165.296C327.45 143.409 325.481 120.741 320.101 101.394C304.288 87.3237 285.194 75.0122 260.13 62.7007C230.604 48.2396 201.799 40.2925 174.438 38.9897C169.648 38.7943 164.924 38.7292 160.265 38.9246C148.258 39.3806 135.66 41.2045 122.669 44.2661C119.454 46.2854 116.107 48.435 112.827 50.7149L112.695 50.8452C87.1058 68.433 62.96 88.2356 40.9137 109.862C36.3863 114.292 32.187 119.177 28.3814 124.258C28.1845 128.101 28.0533 132.01 27.9877 135.788C27.8565 141.455 27.6597 147.253 27.2004 152.985C26.6754 158.913 25.9537 164.971 25.2975 170.768C24.4446 177.738 23.6572 184.904 23.0666 191.939C22.9354 193.697 22.8042 195.652 22.7386 197.866C28.1189 200.537 34.746 201.449 40.5856 201.905C56.4642 203.273 72.0802 209.005 84.4813 218.125C97.6041 227.831 106.593 240.663 110.399 255.255C113.023 265.221 113.417 275.448 113.548 285.219Z" fill="#002C6B"/>
<path d="M181.918 360.652C177.456 360.652 172.929 360.521 168.402 360.13C120.044 356.613 75.886 334.595 44.1945 298.182C12.5029 261.769 -3.04765 215.194 0.495502 167.185C4.03865 119.177 26.2162 75.3379 62.8944 43.8752C99.5726 12.4125 146.487 -3.02564 194.844 0.491925C243.202 4.00949 287.36 26.0268 319.051 62.4401C350.743 98.8535 366.293 145.429 362.75 193.437C359.207 241.445 337.029 285.284 300.351 316.747C267.085 345.344 225.486 360.652 181.918 360.652ZM148.914 354.724C155.41 355.896 161.971 356.743 168.664 357.264C216.234 360.717 262.361 345.539 298.448 314.598C334.536 283.656 356.386 240.533 359.863 193.307C363.341 146.08 348.053 100.287 316.886 64.4595C285.719 28.6324 242.283 6.94078 194.713 3.48835C147.143 0.0359288 101.016 15.2136 64.9284 46.1551C28.8408 77.0967 6.99135 120.219 3.51381 167.446C0.0362681 214.673 15.3243 260.466 46.4909 296.293C69.3246 322.479 98.654 341.109 131.33 350.555C124.243 347.168 119.126 341.826 116.239 334.595C110.727 320.851 110.661 305.804 110.596 291.212C110.596 290.17 110.596 289.128 110.596 288.02C98.3259 287.89 87.1059 287.499 75.8203 284.698C61.8446 281.181 49.9684 274.992 41.373 266.589C26.1506 251.802 18.8674 229.199 19.7204 199.43C18.0145 198.388 16.5053 197.215 15.193 195.912C12.0436 192.72 9.94396 188.356 8.82852 182.884C5.02291 164.254 10.9282 143.084 25.4945 123.086C25.8882 116.246 26.7411 107.387 29.5625 98.5278C37.305 74.4259 58.8263 63.8081 80.2164 54.949C81.3975 54.493 82.5786 53.9719 83.7596 53.516C96.7512 48.3699 109.415 44.2661 121.553 41.3348C150.161 23.4864 175.882 15.0833 202.455 14.8879C234.081 14.6925 264.46 24.9195 288.081 43.6798C304.157 56.5124 315.836 75.3379 322.726 99.57C327.712 104 332.305 108.625 336.505 113.315C348.184 126.343 354.876 139.436 356.32 152.203C357.37 161.258 355.008 170.312 349.299 179.171C346.872 182.949 343.722 186.727 340.048 190.44C334.799 195.717 329.09 200.211 323.185 204.641C319.051 224.9 313.146 243.53 305.535 260.075C301.007 269.911 295.365 279.422 288.672 288.216C287.819 301.765 285.523 311.471 281.192 319.744C272.268 336.745 247.598 341.761 229.882 336.68C229.816 336.68 229.816 336.68 229.751 336.615C206.261 348.145 180.803 354.203 154.098 354.593C152.326 354.854 150.555 354.854 148.914 354.724ZM203.505 18.0146C203.177 18.0146 202.849 18.0146 202.521 18.0146C176.407 18.21 151.145 26.4828 122.931 44.1358L122.734 44.2661L122.472 44.3312C110.399 47.1974 97.7354 51.3012 84.8751 56.4473C83.694 56.9032 82.513 57.4244 81.3319 57.8803C60.5979 66.4137 39.7327 76.7059 32.3839 99.6352C29.6282 108.364 28.7752 117.158 28.4471 123.867V124.323L28.1846 124.649C13.9464 144.061 8.10677 164.645 11.7811 182.493C12.7654 187.379 14.6682 191.222 17.3583 194.023C18.6706 195.326 20.1141 196.498 21.9513 197.476L22.7386 197.932V198.844C21.7544 228.222 28.7095 250.369 43.4726 264.7C51.6744 272.712 63.1568 278.705 76.5421 282.027C87.9589 284.894 99.3757 285.154 112.039 285.284H113.483V286.717C113.483 288.281 113.483 289.779 113.483 291.342C113.548 305.673 113.548 320.46 118.863 333.618C122.275 342.152 131.198 352.314 153.967 351.988C180.475 351.597 205.67 345.604 228.898 334.074L229.423 333.814L230.013 334.009C230.144 334.074 230.21 334.074 230.341 334.14C230.472 334.205 230.538 334.205 230.669 334.205C247.27 338.96 270.3 334.4 278.567 318.701C282.767 310.754 284.998 301.244 285.785 287.89V287.434L286.047 287.108C292.674 278.314 298.383 268.934 302.845 259.163C310.39 242.683 316.295 224.053 320.363 203.794L320.495 203.273L320.954 202.947C326.925 198.453 332.699 193.958 337.882 188.682C341.426 185.099 344.378 181.451 346.74 177.868C352.055 169.661 354.286 161.193 353.302 152.855C351.924 140.673 345.494 128.101 334.208 115.529C329.943 110.774 325.416 106.279 320.363 101.72L320.035 101.459L319.904 101.068C313.212 77.2269 301.86 58.7923 286.113 46.2854C263.476 27.981 234.081 18.0146 203.505 18.0146Z" fill="#002C6B"/>
</svg>
