<svg width="144" height="144" viewBox="0 0 144 144" fill="none" xmlns="http://www.w3.org/2000/svg">
<g id="icon" clip-path="url(#clip0_1759_2582)">
<path id="Union" fill-rule="evenodd" clip-rule="evenodd" d="M139.5 94.5H136.125C135.506 94.5 135 93.9938 135 93.375V19.125C135 18.5063 135.506 18 136.125 18H139.5C141.989 18 144 15.9891 144 13.5C144 11.0109 141.989 9 139.5 9H81.5625C81.2531 9 81 8.74687 81 8.4375C81 6.10313 80.0578 3.99375 78.525 2.475C77.0063 0.942188 74.8969 0 72.5625 0H71.4375C66.7828 0 63 3.78281 63 8.4375C63 8.59219 62.9437 8.73281 62.8312 8.83125C62.7328 8.92969 62.5922 9 62.4375 9H4.5C2.01094 9 0 11.0109 0 13.5C0 14.7375 0.50625 15.8625 1.32187 16.6781C2.1375 17.4937 3.2625 18 4.5 18H7.875C8.49375 18 9 18.5063 9 19.125V93.375C9 93.9938 8.49375 94.5 7.875 94.5H4.5C2.01094 94.5 0 96.5109 0 99C0 100.238 0.50625 101.362 1.32187 102.178C2.1375 102.994 3.2625 103.5 4.5 103.5H55.7016C57.1359 103.5 58.2047 104.836 57.8953 106.242L50.6812 138.656C50.0766 141.398 52.1578 144 54.9703 144C55.9969 144 56.9672 143.648 57.7266 143.03C58.4859 142.425 59.0484 141.553 59.2594 140.555L66.3891 108.492C66.5297 107.831 67.5 107.944 67.5 108.619V139.598C67.5 142.031 69.4688 143.986 71.8875 143.986H72.0984C74.5312 143.986 76.4859 142.017 76.4859 139.598V108.619C76.4859 107.944 77.4562 107.845 77.5969 108.492L84.7266 140.555C85.1766 142.566 86.9484 143.986 89.0156 144H89.0297C91.8422 144 93.9375 141.398 93.3187 138.656L86.1047 106.242C85.7953 104.836 86.8641 103.5 88.2984 103.5H139.5C141.989 103.5 144 101.489 144 99C144 97.7625 143.494 96.6375 142.678 95.8219C141.863 95.0063 140.738 94.5 139.5 94.5ZM72 90C53.3531 90 38.25 74.8828 38.25 56.25C38.25 37.6172 53.3531 22.5 72 22.5C90.6469 22.5 105.75 37.6172 105.75 56.25C105.75 74.8828 90.6469 90 72 90ZM101.166 58.5001H101.25V56.2501C101.25 56.2626 101.25 56.2751 101.25 56.2876M101.166 58.5001C101.166 58.5 101.166 58.5 101.166 58.5L101.166 58.5001ZM94.2891 49.5001H78.75C77.5125 49.5001 76.5 48.4876 76.5 47.2501V33.3001C76.5 32.5688 77.1891 32.0344 77.9062 32.2032C82.2656 33.2579 86.2594 35.4938 89.5078 38.7422C92.1656 41.4001 94.1484 44.5501 95.3578 47.9954C95.6109 48.7266 95.0625 49.5001 94.2891 49.5001ZM89.4937 73.7578C93.3328 69.9187 95.7515 65.0531 96.4969 59.7797C96.5953 59.1047 96.075 58.5 95.3859 58.5H76.5C71.5359 58.5 67.5 54.464 67.5 49.5V33.2859C67.5 32.5547 66.825 32.0203 66.1219 32.189C61.7625 33.2578 57.7547 35.4937 54.5062 38.7422C49.8797 43.3687 47.2781 49.6125 47.25 56.1515C47.2219 62.8734 49.8515 69.1875 54.6469 73.8984C59.1328 78.3281 65.1797 80.8734 71.4797 81C78.2719 81.1406 84.6984 78.5531 89.4937 73.7578Z" fill="#D0F0D1"/>
</g>
<defs>
<clipPath id="clip0_1759_2582">
<rect width="144" height="144" fill="white"/>
</clipPath>
</defs>
</svg>
